<svg xmlns="http://www.w3.org/2000/svg" width="800" height="800" viewBox="0 0 100 100"><path d="M53.289 5a1.12 1.12 0 0 0-.953.527L11.975 70.381a1.12 1.12 0 0 0 .506 1.62l53.057 22.907a1.12 1.12 0 0 0 1.388-.427L88.02 61.319a1.12 1.12 0 0 0 .008-1.19L54.24 5.531A1.12 1.12 0 0 0 53.29 5zm-.672 4.315 11.969 82.744L14.562 70.46 52.616 9.315zm2.548 1.97 30.589 49.424-19.096 30.023zm27.85 48.97a1.084 1.084 0 0 0-.21.002l-1.99.275a.982.982 0 0 0-.819 1.163c.089.56.606.951 1.174.889l1.992-.275a.982.982 0 0 0 .818-1.163 1.065 1.065 0 0 0-.964-.892m-7.966 1.099a1.084 1.084 0 0 0-.21.002l-1.991.275a.982.982 0 0 0-.818 1.164c.088.56.605.95 1.174.888l1.991-.274a.982.982 0 0 0 .818-1.164 1.065 1.065 0 0 0-.963-.891m-7.966 1.099a1.084 1.084 0 0 0-.21.003l-1.992.274a.982.982 0 0 0-.818 1.164c.089.56.606.951 1.174.889l1.992-.275a.982.982 0 0 0 .818-1.164 1.065 1.065 0 0 0-.964-.891m-7.967 1.1a1.084 1.084 0 0 0-.21.002l-1.991.275a.982.982 0 0 0-.818 1.163c.088.56.605.951 1.173.889l1.992-.275a.982.982 0 0 0 .818-1.163 1.065 1.065 0 0 0-.964-.892M51.15 64.65a1.084 1.084 0 0 0-.21.003l-1.992.275a.982.982 0 0 0-.818 1.164c.088.559.606.95 1.174.888l1.991-.275a.982.982 0 0 0 .819-1.163 1.065 1.065 0 0 0-.964-.892m-7.967 1.1a1.084 1.084 0 0 0-.21.002l-1.991.275a.982.982 0 0 0-.818 1.164c.088.56.605.95 1.173.888l1.992-.275a.982.982 0 0 0 .818-1.163 1.065 1.065 0 0 0-.964-.892m-7.895 1.112a1.084 1.084 0 0 0-.21.003l-1.992.275a.982.982 0 0 0-.818 1.163c.088.56.605.952 1.174.89l1.991-.276a.982.982 0 0 0 .818-1.163 1.065 1.065 0 0 0-.963-.892m-7.967 1.1a1.084 1.084 0 0 0-.21.003l-1.992.274a.982.982 0 0 0-.818 1.164c.089.56.606.951 1.174.889l1.992-.275a.982.982 0 0 0 .818-1.164 1.065 1.065 0 0 0-.964-.891m-7.967 1.099a1.084 1.084 0 0 0-.21.003l-1.991.275a.982.982 0 0 0-.818 1.163c.088.56.605.951 1.173.889l1.992-.275a.982.982 0 0 0 .818-1.164 1.065 1.065 0 0 0-.964-.891"/></svg>